<?xml version="1.0" standalone="no"?>
<!DOCTYPE svg PUBLIC "-//W3C//DTD SVG 20010904//EN"
 "http://www.w3.org/TR/2001/REC-SVG-20010904/DTD/svg10.dtd">
<svg version="1.0" xmlns="http://www.w3.org/2000/svg"
 width="5887.000000pt" height="8333.000000pt" viewBox="0 0 5887.000000 8333.000000"
 preserveAspectRatio="xMidYMid meet">
<metadata>
Created by potrace 1.16, written by Peter Selinger 2001-2019
</metadata>
<g transform="translate(0.000000,8333.000000) scale(0.100000,-0.100000)"
fill="#000000" stroke="none">
<path d="M28420 46996 c-291 -169 -434 -250 -720 -403 -679 -365 -952 -542
-1300 -839 -142 -121 -533 -512 -696 -694 -515 -579 -986 -1237 -1486 -2075
-108 -180 -521 -896 -615 -1065 l-30 -55 163 -565 c188 -648 280 -953 300
-992 8 -16 21 -28 30 -28 40 0 156 81 354 249 194 164 270 241 292 291 72 168
621 950 873 1245 399 466 894 918 1485 1357 260 192 398 288 755 523 568 374
639 436 1175 1010 351 377 657 716 728 806 10 14 -55 83 -481 510 -272 272
-526 532 -566 579 -40 47 -93 109 -117 138 -25 28 -51 52 -57 52 -7 0 -46 -20
-87 -44z"/>
<path d="M32436 42979 c-100 -15 -202 -47 -385 -121 -307 -123 -673 -257
-1328 -487 -1179 -413 -1491 -566 -2493 -1216 -692 -450 -1467 -931 -1855
-1153 l-190 -108 -42 -80 c-106 -199 -483 -1200 -688 -1824 -81 -247 -165
-543 -165 -582 0 -13 51 -29 273 -82 149 -37 332 -83 406 -103 l133 -35 27 19
c40 30 120 139 248 343 370 586 582 891 1272 1830 324 441 1172 1575 1215
1625 l27 30 -14 -35 c-28 -69 -138 -301 -307 -650 -566 -1166 -880 -1871
-1169 -2625 l-69 -180 137 -3 c159 -4 482 11 768 35 l202 17 294 400 c519 707
668 942 957 1511 199 391 294 559 313 552 22 -7 28 -68 37 -387 9 -333 26
-589 60 -928 37 -355 50 -534 60 -786 11 -270 16 -344 29 -364 9 -14 118 37
480 226 l223 117 188 375 188 376 21 664 c12 365 22 664 24 665 1 1 110 59
242 127 375 196 539 295 1045 629 l345 227 1100 5 c1071 5 1283 10 1855 42
1070 60 1966 199 2348 363 185 80 407 232 632 432 317 282 930 890 930 922 0
16 -57 2 -250 -59 -377 -121 -465 -146 -735 -213 -656 -163 -1362 -279 -2035
-336 -534 -45 -1225 40 -2120 260 -511 126 -951 270 -1364 445 -283 120 -300
124 -576 127 -129 1 -262 -2 -294 -7z"/>
<path d="M23206 41188 c-178 -275 -443 -806 -434 -873 2 -16 135 -133 468
-410 484 -403 523 -435 533 -435 15 0 4 21 -78 143 -93 141 -106 177 -80 228
32 61 10 195 -96 589 -122 450 -238 840 -251 840 -4 0 -33 -37 -62 -82z"/>
<path d="M22194 30171 c-60 -55 -144 -133 -188 -173 l-79 -73 -83 -530 c-183
-1157 -387 -2400 -578 -3510 -46 -269 -82 -491 -81 -493 6 -6 320 100 331 112
6 6 32 137 59 291 117 692 384 2222 392 2248 4 15 53 -29 236 -210 237 -234
365 -345 542 -470 361 -255 842 -476 1243 -569 99 -24 140 -28 267 -28 140 -1
153 1 191 23 137 78 120 325 -39 569 -231 354 -569 584 -1051 716 -218 60
-528 104 -846 121 -258 13 -457 26 -483 31 -26 5 -28 9 -23 42 3 21 40 244 81
497 71 435 190 1196 215 1370 6 44 13 92 16 108 3 15 1 27 -4 27 -5 0 -58 -45
-118 -99z"/>
<path d="M21157 24316 c-64 -29 -120 -56 -124 -60 -5 -5 42 -6 104 -4 92 3
115 7 132 22 21 19 30 79 13 90 -4 3 -61 -19 -125 -48z"/>
<path d="M20697 22803 c-8 -16 -17 -41 -20 -58 -27 -137 -338 -1646 -381
-1850 -269 -1270 -605 -2727 -976 -4236 -177 -717 -274 -1129 -267 -1135 6 -6
150 212 279 421 285 462 322 545 418 940 220 896 715 3209 1212 5653 20 96 20
106 5 137 -19 40 -60 73 -151 120 -81 42 -101 44 -119 8z"/>
<path d="M27266 18784 c-159 -46 -291 -86 -294 -88 -12 -13 -146 -613 -201
-901 -164 -872 -251 -1670 -316 -2895 -35 -663 -41 -980 -26 -1260 l6 -115
178 233 c136 179 178 242 182 270 3 20 19 224 35 452 86 1193 206 2113 395
3030 92 443 249 1076 319 1279 14 41 26 76 26 78 0 5 -6 4 -304 -83z"/>
<path d="M19253 15069 c-119 -165 -345 -524 -497 -787 -106 -184 -125 -225
-136 -285 -6 -29 -33 -135 -60 -237 -91 -339 -114 -581 -145 -1525 -8 -253
-17 -508 -20 -567 -3 -60 -3 -108 -1 -108 15 0 286 999 610 2248 201 774 325
1301 314 1334 -2 6 -31 -26 -65 -73z"/>
<path d="M26627 13463 c-147 -184 -180 -241 -196 -343 -14 -83 -14 -386 -1
-695 65 -1530 93 -1932 231 -3305 127 -1269 145 -1400 204 -1467 23 -28 24
-28 141 -26 158 2 153 -4 126 165 -85 524 -245 2014 -259 2406 l-6 172 129 0
c195 1 411 17 526 40 588 120 1100 511 1501 1147 83 132 258 479 315 625 84
216 82 221 -101 227 -258 7 -568 -61 -897 -199 -513 -214 -1040 -533 -1326
-802 -125 -118 -182 -164 -190 -155 -19 19 -37 656 -52 1832 l-7 550 -138
-172z"/>
<path d="M18092 12113 c-15 -39 -71 -216 -202 -638 -306 -989 -925 -2851
-1171 -3524 -50 -134 -89 -244 -87 -246 9 -6 582 25 589 32 8 9 334 996 609
1847 l181 560 24 445 c44 808 78 1541 71 1548 -2 2 -8 -9 -14 -24z"/>
<path d="M22183 11898 c-275 -374 -726 -1268 -1210 -2398 -210 -488 -593
-1457 -667 -1683 -63 -194 -59 -199 174 -195 l163 3 39 150 c113 438 230 830
380 1280 200 598 395 1118 494 1317 41 83 57 103 79 103 5 0 9 16 7 36 -8 89
198 609 443 1119 123 255 148 311 141 317 -2 3 -22 -19 -43 -49z"/>
<path d="M21691 10388 c7 -13 58 -108 114 -213 56 -104 178 -334 270 -510 226
-432 327 -607 374 -649 128 -115 -175 489 -531 1061 -126 202 -217 332 -231
333 -4 0 -2 -10 4 -22z"/>
<path d="M22617 8770 c-9 -14 -17 -41 -17 -61 0 -72 110 -358 269 -698 148
-319 204 -390 297 -379 56 6 40 51 -150 433 -166 335 -333 656 -367 705 l-15
23 -17 -23z"/>
</g>
</svg>
